<svg width="24" height="24" viewBox="0 0 24 24" fill="none" xmlns="http://www.w3.org/2000/svg">
<mask id="mask0_2755_25" style="mask-type:alpha" maskUnits="userSpaceOnUse" x="0" y="0" width="24" height="24">
<rect width="24" height="24" fill="#D9D9D9"/>
</mask>
<g mask="url(#mask0_2755_25)">
<path d="M3 20V18.2105H11.1V8.21184C10.71 8.07763 10.3725 7.86886 10.0875 7.58553C9.8025 7.30219 9.5925 6.96667 9.4575 6.57895H6.6L9.3 12.8421C9.3 13.5877 8.9925 14.2215 8.3775 14.7434C7.7625 15.2654 7.02 15.5263 6.15 15.5263C5.28 15.5263 4.5375 15.2654 3.9225 14.7434C3.3075 14.2215 3 13.5877 3 12.8421L5.7 6.57895H3.9V4.78947H9.4575C9.6375 4.26754 9.96 3.83882 10.425 3.50329C10.89 3.16776 11.415 3 12 3C12.585 3 13.11 3.16776 13.575 3.50329C14.04 3.83882 14.3625 4.26754 14.5425 4.78947H20.1V6.57895H18.3L21 12.8421C21 13.5877 20.6925 14.2215 20.0775 14.7434C19.4625 15.2654 18.72 15.5263 17.85 15.5263C16.98 15.5263 16.2375 15.2654 15.6225 14.7434C15.0075 14.2215 14.7 13.5877 14.7 12.8421L17.4 6.57895H14.5425C14.4075 6.96667 14.1975 7.30219 13.9125 7.58553C13.6275 7.86886 13.29 8.07763 12.9 8.21184V18.2105H21V20H3ZM16.1625 12.8421H19.5375L17.85 8.95L16.1625 12.8421ZM4.4625 12.8421H7.8375L6.15 8.95L4.4625 12.8421ZM12 6.57895C12.255 6.57895 12.4688 6.4932 12.6413 6.32171C12.8138 6.15022 12.9 5.93772 12.9 5.68421C12.9 5.4307 12.8138 5.2182 12.6413 5.04671C12.4688 4.87522 12.255 4.78947 12 4.78947C11.745 4.78947 11.5312 4.87522 11.3588 5.04671C11.1862 5.2182 11.1 5.4307 11.1 5.68421C11.1 5.93772 11.1862 6.15022 11.3588 6.32171C11.5312 6.4932 11.745 6.57895 12 6.57895Z" fill="#333333"/>
</g>
</svg>
