<svg width="34" height="34" viewBox="0 0 34 34" fill="none" xmlns="http://www.w3.org/2000/svg">
<rect width="34" height="34" rx="17" fill="#F7F5F0"/>
<path d="M10.4082 14.1104L8.5332 18.46L8.47266 18.5996H12.5273L12.4668 18.46L10.5918 14.1104L10.5 13.8975L10.4082 14.1104ZM23.4082 14.1104L21.5332 18.46L21.4727 18.5996H25.5273L25.4668 18.46L23.5918 14.1104L23.5 13.8975L23.4082 14.1104ZM17 9.40039C16.6915 9.40039 16.4281 9.50545 16.2168 9.7168C16.0055 9.92814 15.9004 10.1915 15.9004 10.5C15.9004 10.8085 16.0055 11.0719 16.2168 11.2832C16.4281 11.4945 16.6915 11.5996 17 11.5996C17.3085 11.5996 17.5719 11.4945 17.7832 11.2832C17.9945 11.0719 18.0996 10.8085 18.0996 10.5C18.0996 10.1915 17.9945 9.92814 17.7832 9.7168C17.5719 9.50545 17.3085 9.40039 17 9.40039ZM16.0996 13.2539L16.0322 13.2305C15.613 13.0853 15.2509 12.8603 14.9453 12.5547C14.6397 12.2491 14.4147 11.887 14.2695 11.4678L14.2461 11.4004H10.8486L10.9082 11.5391L13.8994 18.5195C13.8941 19.3126 13.5677 19.9874 12.9102 20.5488C12.2464 21.1155 11.4448 21.4004 10.5 21.4004C9.55518 21.4004 8.75364 21.1155 8.08984 20.5488C7.43225 19.9874 7.10488 19.3126 7.09961 18.5195L10.0918 11.5391L10.1514 11.4004H8.09961V9.59961H14.2461L14.2695 9.53223C14.4626 8.96922 14.8081 8.50687 15.3086 8.14355C15.8079 7.78119 16.3707 7.59961 17 7.59961C17.6293 7.59961 18.1921 7.78119 18.6914 8.14355C19.1919 8.50687 19.5374 8.96921 19.7305 9.53223L19.7539 9.59961H25.9004V11.4004H23.8486L23.9082 11.5391L26.8994 18.5195C26.8941 19.3126 26.5677 19.9874 25.9102 20.5488C25.2464 21.1155 24.4448 21.4004 23.5 21.4004C22.5552 21.4004 21.7536 21.1155 21.0898 20.5488C20.4323 19.9874 20.1049 19.3126 20.0996 18.5195L23.0918 11.5391L23.1514 11.4004H19.7539L19.7305 11.4678C19.5853 11.887 19.3603 12.2491 19.0547 12.5547C18.7491 12.8603 18.387 13.0853 17.9678 13.2305L17.9004 13.2539V24.5996H26.9004V26.4004H7.09961V24.5996H16.0996V13.2539Z" fill="#242427" stroke="#F7F5F0" stroke-width="0.2"/>
</svg>
