<svg width="60" height="60" viewBox="0 0 60 60" fill="none" xmlns="http://www.w3.org/2000/svg">
<g clip-path="url(#clip0_984_794)">
<path d="M24.9778 59.9996C24.8817 59.8072 24.6174 59.8432 24.4972 59.6869C23.9205 58.8811 24.5212 55.4897 24.2089 54.3712L14.0447 42.5251C11.9301 40.0116 14.6454 36.2834 17.625 37.1734C18.9345 37.5702 22.3947 41.1421 23.6802 42.2365C23.7643 42.3087 24.2449 42.6695 24.2689 42.6454C24.3651 40.8655 24.4131 39.0976 24.3891 37.3057C24.3891 36.9689 24.2689 36.6803 24.2569 36.3796C24.2209 30.7272 24.2089 25.0507 24.3771 19.3983C14.5853 12.916 21.013 -2.65826 32.8112 0.396459C39.323 2.08016 42.2065 9.51251 39.287 15.4416C37.7611 18.5444 34.5773 20.6009 31.1652 20.9617V31.1601C32.7031 30.4025 35.0819 30.8835 35.7307 32.5672C37.7731 31.569 40.0198 32.1223 41.0531 34.2028C42.675 33.1686 45.0298 33.9262 45.8588 35.6099C46.6878 37.2936 46.0871 40.18 46.2433 42.0922C45.7988 43.1505 44.6093 42.9461 44.5132 41.7675C44.3811 40.2762 44.7535 38.2678 44.4892 36.8607C44.2609 35.5859 42.3987 34.9725 41.5457 35.9587C40.6926 36.9449 41.9421 39.8673 40.4764 40.0477C39.8877 40.1198 39.5633 39.8793 39.4912 39.29C39.287 37.4981 40.4283 33.2046 37.2325 33.8661C35.3222 34.263 36.8 37.4139 35.947 38.2557C35.5385 38.6646 34.6494 38.5324 34.4812 37.9671C34.0367 36.4518 35.5385 32.1944 32.5349 32.5552C30.5044 32.7957 31.3815 35.1409 31.1652 36.4638C30.997 37.5702 29.363 37.5221 29.4111 36.3556V20.0717C29.1228 18.0152 26.0471 18.1836 26.023 20.2882L25.9389 45.171C25.7347 45.628 24.9898 45.664 24.6294 45.3634C22.3947 43.5714 20.3162 41.2503 18.0695 39.5065C17.3246 38.9292 16.796 38.4361 15.8468 39.0495C15.2822 39.4103 14.8256 40.2762 15.138 40.9256L25.9389 53.6737C26.0951 54.0585 26.1192 58.6045 26.0351 59.2179C25.975 59.6628 25.7347 59.6989 25.4463 59.9755H24.9778V59.9996ZM30.961 19.1938C41.4135 18.0994 41.1372 2.50109 30.5284 1.75545C21.7219 1.1421 17.8532 13.2167 25.2781 17.7987C27.1043 16.2473 30.3002 16.7284 30.961 19.1938Z" fill="#1E381F"/>
<path d="M59.9642 22.2486C60.0122 22.7658 60.0122 23.7159 59.9642 24.245C58.8949 36.3557 41.498 37.3058 39.2874 25.4356C37.7976 17.4381 45.1504 10.8476 52.9117 13.4212C56.5881 14.6359 59.5677 18.3641 59.9642 22.2486ZM49.2954 14.6599C37.6054 14.9486 38.4824 32.6395 49.848 32.2186C61.2137 31.7976 60.8773 14.3833 49.2954 14.6599Z" fill="#1E381F"/>
<path d="M41.9423 60.0009H41.3535L40.7769 59.3515L40.8009 53.8674C42.1585 52.2318 43.6723 51.0412 44.249 48.8885C44.4172 48.2751 44.4653 46.5193 44.8257 46.3028C45.871 45.6413 46.3275 46.7117 46.2795 47.6377C46.1113 50.5241 44.4292 52.5686 42.567 54.577C42.3868 55.9961 42.7352 57.7279 42.531 59.111C42.4709 59.5559 42.3147 59.7484 41.9543 60.0009H41.9423Z" fill="#1E381F"/>
<path d="M9.27537 12.9046C19.7159 11.8824 25.2185 24.8709 17.0727 31.6178C8.79479 38.4849 -3.17157 29.3087 0.781175 19.5192C1.08154 18.7615 1.35787 17.9557 2.30701 18.1722C3.52046 18.4488 2.29499 20.337 2.10276 21.0706C-0.264079 30.1025 11.2698 36.2961 17.2529 28.984C23.2361 21.6719 15.4508 11.8703 7.26896 15.2257C6.77637 15.4302 5.43075 16.3442 5.13039 16.3803C4.36147 16.4645 3.89291 15.6467 4.32543 14.9732C4.97421 13.987 8.12198 13.0008 9.27537 12.8926V12.9046Z" fill="#1E381F"/>
<path d="M24.5938 9.25977L27.5012 9.27179L29.2313 15.0325L29.2073 15.0565L24.5938 9.28382V9.25977Z" fill="#1E381F"/>
<path d="M31.8985 9.25977L30.0483 15.4414L28.186 9.25977H31.8985Z" fill="#1E381F"/>
<path d="M35.4906 9.25977L30.853 15.0565L32.5711 9.25977H35.4906Z" fill="#1E381F"/>
<path d="M31.8744 8.6224H28.21L29.1231 6.20508H30.9613L31.8744 8.6224Z" fill="#1E381F"/>
<path d="M28.4265 6.19336L27.5374 8.6227H24.7261L24.7621 8.56257L27.1049 6.24147C27.1049 6.24147 27.2131 6.19336 27.2251 6.19336H28.4265Z" fill="#1E381F"/>
<path d="M35.3709 8.6227H32.5595L31.6704 6.19336H32.8719C32.8719 6.19336 32.98 6.22944 32.992 6.24147L35.3348 8.56257L35.3709 8.6227Z" fill="#1E381F"/>
<path d="M44.0928 22.6934H47.0123L48.7424 28.4661L48.7183 28.4781L44.0928 22.7174V22.6934Z" fill="#1E381F"/>
<path d="M51.4097 22.6934L49.5595 28.875L47.6973 22.6934H51.4097Z" fill="#1E381F"/>
<path d="M55.0018 22.6934L50.3643 28.4901L52.0823 22.6934H55.0018Z" fill="#1E381F"/>
<path d="M51.3856 22.056H47.7212L48.6343 19.6387H50.4725L51.3856 22.056Z" fill="#1E381F"/>
<path d="M47.9373 19.627L47.0482 22.0563H44.2368L44.2729 21.9962L46.6157 19.6751C46.6157 19.6751 46.7238 19.627 46.7358 19.627H47.9373Z" fill="#1E381F"/>
<path d="M54.8816 22.0563H52.0702L51.1812 19.627H52.3826C52.3826 19.627 52.4907 19.663 52.5027 19.6751L54.8456 21.9962L54.8816 22.0563Z" fill="#1E381F"/>
<path d="M5.03418 22.6934H7.95368L9.68376 28.4661L9.65973 28.4781L5.03418 22.7174V22.6934Z" fill="#1E381F"/>
<path d="M12.3511 22.6934L10.5009 28.875L8.63867 22.6934H12.3511Z" fill="#1E381F"/>
<path d="M15.9432 22.6934L11.3057 28.4901L13.0237 22.6934H15.9432Z" fill="#1E381F"/>
<path d="M12.327 22.056H8.6626L9.57569 19.6387H11.4139L12.327 22.056Z" fill="#1E381F"/>
<path d="M8.87866 19.627L7.9896 22.0563H5.17822L5.21427 21.9962L7.55708 19.6751C7.55708 19.6751 7.66521 19.627 7.67722 19.627H8.87866Z" fill="#1E381F"/>
<path d="M15.823 22.0563H13.0116L12.1226 19.627H13.324C13.324 19.627 13.4321 19.663 13.4441 19.6751L15.787 21.9962L15.823 22.0563Z" fill="#1E381F"/>
</g>
<defs>
<clipPath id="clip0_984_794">
<rect width="60" height="60" fill="white"/>
</clipPath>
</defs>
</svg>
