<svg version="1.1" id="Layer_1" xmlns="http://www.w3.org/2000/svg" xmlns:xlink="http://www.w3.org/1999/xlink" x="0px" y="0px"
	 width="100%" viewBox="0 0 1024 784" enable-background="new 0 0 1024 784" xml:space="preserve">
<path fill="#000000" opacity="1.000000" stroke="none" 
	d="
M886.019165,531.210266 
	C872.660950,535.800354 860.380127,541.554321 849.830261,550.626282 
	C846.398193,553.577515 842.155945,555.341858 837.883606,556.760742 
	C833.951660,558.066528 832.108887,560.597717 831.263184,564.611389 
	C824.234741,597.967041 808.726440,626.880676 784.146057,650.454773 
	C750.299622,682.915588 709.709534,699.070374 662.670593,696.991577 
	C632.624390,695.663879 604.938904,686.125000 579.854797,669.323425 
	C536.539856,640.310669 493.209564,611.320984 449.863068,582.355469 
	C431.859039,570.324585 413.753204,558.445801 395.770844,546.382812 
	C365.902496,526.346497 366.844910,482.869019 397.878845,464.540070 
	C413.938934,455.054840 431.426514,448.269409 448.268616,440.266357 
	C481.660309,424.399292 515.084045,408.594666 548.652771,393.106995 
	C567.691040,384.323303 585.966919,373.670135 606.036072,367.353119 
	C674.705566,345.738556 735.241028,360.184814 786.934509,410.083649 
	C810.703735,433.027649 825.188782,461.581757 831.876160,493.808716 
	C833.723694,502.711823 838.393982,506.973785 846.533752,508.173035 
	C858.236267,509.897186 869.848206,509.434296 880.708069,504.075287 
	C888.122864,500.416321 888.973755,495.008636 883.356812,488.901825 
	C880.901306,486.232117 878.281982,483.645203 881.150757,479.835602 
	C883.495605,476.721741 887.880005,476.513702 891.942261,479.304413 
	C908.830200,490.906281 912.575500,516.989929 890.372375,529.020691 
	C889.054626,529.734680 887.707153,530.393677 886.019165,531.210266 
M423.194916,488.080322 
	C411.894257,487.894806 404.035156,494.779938 403.469086,505.361542 
	C403.004700,514.042053 410.452850,522.622681 419.324219,523.627258 
	C429.575684,524.788147 437.537567,518.401001 439.168396,507.707947 
	C440.568695,498.526428 434.157654,490.251434 423.194916,488.080322 
z"/>
<path fill="#000000" opacity="1.000000" stroke="none" 
	d="
M96.298492,602.645081 
	C80.583031,580.546692 69.927963,556.644104 66.507195,530.012878 
	C58.997715,471.550568 76.783478,422.058014 121.125832,382.987122 
	C141.879898,364.700317 165.708511,350.283661 187.574448,333.372314 
	C212.541153,314.062775 240.421967,302.603668 271.832611,300.097595 
	C302.708130,297.634247 332.039124,303.627319 358.852936,319.160767 
	C403.250977,344.880920 447.263947,371.265839 491.418457,397.405670 
	C493.074585,398.386108 495.128021,399.008362 496.027954,401.392792 
	C494.490051,403.413483 492.012299,404.070190 489.843964,405.097504 
	C458.683960,419.860382 427.535950,434.649292 396.314087,449.280579 
	C377.084534,458.291992 365.844147,473.435120 361.198242,493.860413 
	C360.762268,495.777161 360.200470,497.665497 359.674927,499.560883 
	C359.652679,499.640900 359.404785,499.658356 358.888519,499.826843 
	C352.810852,449.391449 328.022003,411.509674 282.223389,388.863892 
	C254.038742,374.927582 224.114731,372.681427 193.609634,380.515137 
	C137.609680,394.895935 91.954887,448.510437 98.474815,518.332947 
	C103.882935,576.249146 149.049576,629.313171 214.386963,637.416016 
	C251.492020,642.017639 284.658722,631.513306 313.243866,607.386047 
	C341.716980,583.353394 356.423462,552.281006 359.346680,514.976685 
	C362.807617,528.248962 367.815735,540.382019 377.660248,550.055725 
	C387.247650,559.476807 399.492279,565.201355 409.840729,573.327759 
	C409.586945,575.822449 407.638947,576.492126 406.262970,577.554932 
	C378.842255,598.735352 351.621552,620.184265 323.885986,640.945068 
	C287.869751,667.903992 247.224701,677.433716 203.021225,669.760071 
	C158.604874,662.049500 123.431259,638.893372 96.298492,602.645081 
z"/>
<path fill="#000000" opacity="1.000000" stroke="none" 
	d="
M778.106995,308.753784 
	C815.554077,322.387177 845.195129,345.279785 866.398132,378.740723 
	C878.216675,397.391815 885.636780,417.817139 890.078003,439.345703 
	C891.521179,446.341431 890.275574,452.777924 885.020569,458.300385 
	C874.572815,469.279877 864.400085,480.520782 854.086304,491.628204 
	C852.612122,493.215759 851.049072,494.931549 848.539246,494.271545 
	C845.796509,493.550323 845.390930,491.065887 844.846436,488.813507 
	C828.778931,422.342896 788.088928,377.238312 724.262085,354.304626 
	C676.129089,337.009949 628.017517,340.214844 581.489258,362.258667 
	C560.419495,372.240936 539.273010,382.061249 518.162842,391.958282 
	C511.352722,395.151062 510.269836,394.928680 504.355377,389.021240 
	C504.695740,387.038757 506.540344,386.696320 507.938995,386.003662 
	C555.549683,362.426514 602.912964,338.328278 650.882263,315.503601 
	C691.934204,295.970245 734.536011,294.055786 778.106995,308.753784 
z"/>
<path fill="#000000" opacity="1.000000" stroke="none" 
	d="
M221.646393,607.320801 
	C242.871292,614.374023 264.152893,614.334290 285.791626,611.114807 
	C278.979492,621.287598 235.847031,630.374451 213.144196,625.956421 
	C160.625031,615.735962 125.974556,585.174011 112.400444,533.168335 
	C102.474609,495.140137 112.024788,460.644348 136.460663,430.044250 
	C124.041672,466.248016 124.326347,501.885651 141.017822,536.648682 
	C157.727112,571.448730 184.653717,594.899475 221.646393,607.320801 
z"/>
<path fill="#000000" opacity="1.000000" stroke="none" 
	d="
M841.631714,580.709351 
	C842.674927,572.117981 846.540527,566.533569 854.543762,563.169312 
	C859.806335,560.957214 864.198120,556.706299 869.059631,553.488953 
	C870.620911,552.455627 872.072083,550.790894 875.100159,551.658875 
	C865.266235,569.460632 852.680359,584.495972 837.667419,597.544983 
	C837.267212,597.328491 836.867065,597.112000 836.466858,596.895508 
	C838.159851,591.631287 839.852905,586.367065 841.631714,580.709351 
z"/>
</svg>