<svg width="60" height="49" viewBox="0 0 60 49" fill="none" xmlns="http://www.w3.org/2000/svg">
<path d="M59.988 9.34078V9.86973C59.6746 21.3624 59.9397 32.9752 59.8554 44.5159C59.4938 46.8602 57.6135 48.7235 55.2391 49H4.48373C2.07312 48.5552 0.313379 46.6798 0 44.2515V5.13322C0.0602652 2.51251 2.16955 0.312561 4.7489 0H55.0944C60.217 0.697252 59.9638 5.34961 59.988 9.34078ZM57.7099 8.54735V4.47203C57.7099 4.47203 57.2881 3.63052 57.2037 3.5103C56.6975 2.74092 55.8658 2.29612 54.9618 2.13984H5.27923C4.03777 1.9475 2.13339 3.57041 2.13339 4.74853V8.55937H57.7099V8.54735ZM57.7099 10.6752H2.13339V44.3837C2.13339 45.2733 3.84492 47.0044 4.86943 46.8602H55.0944C56.0225 46.9203 57.7099 45.3334 57.7099 44.5159V10.6752Z" fill="#1E381F"/>
<path d="M26.348 14.9907C35.3516 14.0771 41.8241 22.4081 38.7988 30.8713C38.6541 31.28 38.0876 32.1335 38.1841 32.4701L43.2584 37.5793C45.1748 40.5486 42.0531 43.8666 38.9313 42.1595L33.6642 36.9902C32.6035 37.3028 31.6152 37.8558 30.5183 38.0842C22.6356 39.7793 15.5244 33.7084 16.0667 25.6779C16.4283 20.3644 21.0205 15.5197 26.36 14.9787L26.348 14.9907ZM26.4806 17.1306C22.2258 17.6114 18.5617 21.4824 18.2122 25.702C17.501 34.2854 27.4448 39.5869 34.0137 33.9848C41.354 27.7216 36.1109 16.0486 26.4806 17.1306ZM36.8944 34.1772L35.3516 35.716L39.9076 40.2481C41.0406 41.0295 42.2218 39.8634 41.4384 38.7214L36.8944 34.1772Z" fill="#1E381F"/>
<path d="M5.05036 4.30364L21.4907 4.26758C22.8286 4.42386 22.7924 6.23912 21.3581 6.40742H5.41195C4.09817 6.31125 3.8089 4.78451 5.03831 4.29162L5.05036 4.30364Z" fill="#1E381F"/>
<path d="M47.7661 4.30398C48.3688 4.12365 49.9598 4.1477 50.1888 4.90506C50.6227 6.33563 49.2125 6.53999 48.1398 6.41978C46.7778 6.25148 46.8742 4.56845 47.7661 4.30398Z" fill="#1E381F"/>
<path d="M53.1177 4.30398C53.7203 4.12365 55.3113 4.1477 55.5403 4.90506C55.9742 6.33563 54.564 6.53999 53.4913 6.41978C52.1293 6.25148 52.2257 4.56845 53.1177 4.30398Z" fill="#1E381F"/>
</svg>
