<svg width="60" height="62" viewBox="0 0 60 62" fill="none" xmlns="http://www.w3.org/2000/svg">
<g clip-path="url(#clip0_984_835)">
<path d="M35.0112 12.2487C38.1737 12.2487 41.0124 13.9274 42.5937 16.7377C44.1998 19.5728 44.15 22.9302 42.4567 25.7156C40.8755 28.3145 38.0616 29.8688 34.924 29.8688C32.1226 29.8688 29.5702 28.6129 27.9267 26.4244C25.9471 23.7882 25.586 20.4184 26.9556 17.4091C28.3251 14.4248 31.0768 12.4974 34.3388 12.2736C34.563 12.2611 34.7871 12.2487 34.9987 12.2487M35.0112 9.76172C34.7373 9.76172 34.4633 9.76172 34.177 9.78659C25.2623 10.4208 20.5559 20.7417 25.9471 27.9166C28.1882 30.8885 31.5623 32.3433 34.9365 32.3433C38.6966 32.3433 42.4443 30.5279 44.5982 26.9964C49.1925 19.4111 43.6769 9.76172 35.0112 9.76172Z" fill="#1E381F"/>
<path d="M29.3086 20.1816H32.3341L34.127 26.1379L34.1021 26.1628L29.3086 20.1941V20.1816Z" fill="#102E1B"/>
<path d="M36.8788 20.1816L34.9738 26.5731L33.0439 20.1816H36.8788Z" fill="#102E1B"/>
<path d="M40.6138 20.1816L35.7954 26.1752L37.5883 20.1816H40.6138Z" fill="#102E1B"/>
<path d="M36.8536 19.5216H33.0562L34.0149 17.0098H35.9074L36.8536 19.5216Z" fill="#102E1B"/>
<path d="M33.2801 16.998L32.3588 19.5099H29.4453L29.4827 19.4477L31.9106 17.0478C31.9106 17.0478 32.0226 16.998 32.0351 16.998H33.2801Z" fill="#102E1B"/>
<path d="M40.4769 19.5216H37.5634L36.6421 17.0098H37.8872C37.8872 17.0098 37.9992 17.0471 38.0117 17.0595L40.4396 19.4594L40.4769 19.5216Z" fill="#102E1B"/>
<path d="M0 1.10619C0.435775 0.347667 1.00851 -0.18703 1.95476 0.0616665C4.33285 1.69063 8.97697 3.12063 10.3092 5.73194L19.2613 37.2045H46.2046C48.3212 37.0304 50.0892 35.8366 50.9608 33.8968L57.1239 13.827C57.6966 12.3597 59.9875 12.8074 60 14.3617C60 14.6353 59.7883 15.257 59.7012 15.5679C57.9954 22.121 55.5302 28.6742 53.6501 35.2025C52.8782 37.2791 49.529 40.1018 47.3003 40.1018H20.2075L20.0581 40.3878C20.581 42.7628 21.6891 44.8394 24.2789 45.3368L49.6784 45.3617C51.9444 45.399 52.0564 48.2715 49.8153 48.4207H24.6649C20.7678 47.9233 18.6387 45.7472 17.4684 42.1411C13.7829 30.7011 11.3302 18.6144 7.61984 7.14951C7.42063 6.72673 7.08446 6.37855 6.71094 6.11742C5.11724 4.97342 1.80535 3.81698 0.52293 2.62324C0.261465 2.38698 0.224113 2.0388 0 1.79011V1.09376L0 1.10619Z" fill="#1E381F"/>
<path d="M43.3159 50.9703C50.749 49.9507 51.8945 61.0674 44.9345 61.8881C37.489 62.771 36.4058 51.9154 43.3159 50.9703ZM44.1377 53.8925C40.1534 53.9671 41.411 60.2716 45.1213 58.7296C47.6861 57.6478 46.8021 53.8428 44.1377 53.8925Z" fill="#1E381F"/>
<path d="M25.3996 50.9701C32.098 50.1743 34.0279 59.4631 28.1138 61.5894C20.2823 64.3997 17.6677 51.9027 25.3996 50.9701ZM26.0719 53.8923C23.4572 53.942 22.6728 57.6725 25.1879 58.7294C28.9729 60.3086 30.1059 53.8177 26.0719 53.8923Z" fill="#1E381F"/>
</g>
<defs>
<clipPath id="clip0_984_835">
<rect width="60" height="62" fill="white"/>
</clipPath>
</defs>
</svg>
