<svg width="60" height="60" viewBox="0 0 60 60" fill="none" xmlns="http://www.w3.org/2000/svg">
<g clip-path="url(#clip0_984_821)">
<path d="M18.3486 9.2832H21.2585L22.9899 15.0427L22.9779 15.0668L18.3486 9.30725V9.2832Z" fill="#102E1B"/>
<path d="M25.6593 9.2832L23.8196 15.4636L21.9438 9.2832H25.6593Z" fill="#102E1B"/>
<path d="M29.2666 9.2832L24.6133 15.0788L26.3447 9.2832H29.2666Z" fill="#102E1B"/>
<path d="M25.6351 8.64535H21.9678L22.8816 6.22852H24.7213L25.6351 8.64535Z" fill="#102E1B"/>
<path d="M22.1844 6.2168L21.2946 8.64565H18.481L18.517 8.58553L20.8617 6.26489C20.8617 6.26489 20.9699 6.2168 20.982 6.2168H22.1844Z" fill="#102E1B"/>
<path d="M29.1341 8.64565H26.3204L25.4307 6.2168H26.6331C26.6331 6.2168 26.7413 6.25287 26.7533 6.26489L29.098 8.58553L29.1341 8.64565Z" fill="#102E1B"/>
<path d="M60 24.9021V25.6115C57.7034 32.1165 55.5992 39.4271 52.7495 45.6917C51.2344 49.0223 48.7455 50.4532 46.4729 53.0624C44.5851 55.2388 44.7655 56.4893 44.2004 59.0864C43.9479 60.2648 42.505 60.2287 42.3366 59.351C42.1683 58.4732 42.7455 56.0444 43.0701 55.1185C44.4288 51.2347 48.2525 49.5153 50.3687 46.1726C52.7014 40.2327 55.4669 34.0163 57.3908 27.9321C57.5471 27.4392 58.0761 25.8039 58.0761 25.4191C58.0761 25.2388 57.7154 24.866 57.5471 24.8179C56.4288 24.4812 55.2986 26.1886 54.8056 27.0063C53.4709 29.2307 52.4008 32.1406 51.1743 34.5213C50.8136 35.2187 49.8637 36.5414 49.6593 37.1546C49.4789 37.7077 49.6112 38.3089 49.515 38.9101C49.1783 41.1225 46.497 43.9121 44.8857 45.4271C44.5731 45.7277 43.0821 47.1225 42.8417 47.1826C41.7956 47.4231 41.1463 46.5213 41.7956 45.6556C43.3948 44.0684 47.4469 40.7858 47.6753 38.4893C47.7715 37.4913 47.2785 36.6616 46.1964 36.7698C45.1142 36.878 42.505 39.7638 41.519 40.6295C36.8056 44.7778 33.6312 45.8119 32.9819 52.846C32.9218 53.4712 32.8617 54.4812 32.8617 55.0945C32.8617 56.4051 33.1623 57.9802 32.994 59.2548C32.8497 60.3129 31.2505 60.3369 31.0942 58.8941C30.7815 56.1646 31.022 51.7638 31.7435 49.1065C33.0781 44.2367 36.3366 42.6376 39.8717 39.5594C41.8437 37.852 44.3206 34.4251 47.1342 34.9061C47.5671 34.9782 48.2886 35.5794 48.529 35.4231C49.6112 33.4752 50.5972 31.4672 51.5952 29.4712C52.3647 27.9321 52.8938 26.2247 53.988 24.866C55.8276 22.5814 58.5451 21.872 60.036 24.9261L60 24.9021Z" fill="#1E381F"/>
<path d="M32.838 0.000305299C34.341 0.385075 35.4232 1.37105 35.7959 2.91013C35.4953 7.56343 36.2288 12.7819 35.808 17.3751C35.6757 18.9141 34.2809 20.2729 32.7659 20.5013L24.6256 20.5374L19.7438 26.3209C19.4192 26.838 18.1446 26.4292 18.1446 26.0203V20.5013H14.8861C14.5975 20.5013 13.5514 19.9362 13.2869 19.7318C12.2649 18.9382 11.9522 17.7718 11.8561 16.5334C11.6156 12.9983 11.6276 7.62355 11.8561 4.07646C11.9883 1.9482 12.818 0.57746 14.9462 -0.0117188H32.85L32.838 0.000305299ZM20.0324 22.8821C21.4272 21.6316 22.353 19.84 23.82 18.6616L32.4292 18.6135C33.2949 18.4452 33.836 17.9041 33.9082 17.0143C34.305 12.7338 33.5955 7.83998 33.9082 3.48728C33.8721 2.62155 33.1506 1.96023 32.2969 1.88808H15.4633C14.2609 2.05642 13.828 2.81393 13.7438 3.95622C13.4312 7.9963 13.9963 12.4452 13.7438 16.5334C13.816 19.6356 17.1587 18.3009 19.1426 18.6135C19.4312 18.6616 20.0444 19.1185 20.0444 19.3831V22.8821H20.0324Z" fill="#1E381F"/>
<path d="M11.5071 28.22C12.6975 27.6068 13.4069 27.3182 14.7296 27.7751C16.4129 28.3523 19.2506 31.4785 20.7416 32.7892C24.5051 36.0958 27.3067 37.3342 28.4851 42.709C29.0021 45.0898 29.1945 49.226 28.9179 51.6429C28.7737 52.9655 27.2947 53.0857 27.0422 52.208C26.8859 51.691 27.0181 49.8393 27.0181 49.1419C27.0181 47.5787 27.0903 46.1359 26.8859 44.5367C26.0923 38.3322 22.461 36.8533 18.2406 33.1379C17.2186 32.2481 15.451 30.1799 14.3689 29.6629C13.1785 29.0858 12.2165 29.8553 12.3127 31.1178C12.457 33.0176 15.4149 35.7831 16.7616 37.1058C17.3268 37.6589 18.6855 38.4044 18.3969 39.3182C18.1083 40.232 17.2065 40.0276 16.5813 39.5346C14.6695 38.0076 10.7737 33.9916 10.449 31.5627C10.3769 31.0096 10.5091 30.4445 10.3288 29.9034C10.1003 29.206 9.10232 27.7992 8.6935 27.0296C7.62336 24.9615 5.2907 19.0457 3.71555 17.8914C3.31875 17.6028 2.83779 17.3864 2.35683 17.6028C2.27266 17.6389 1.92396 17.9996 1.91194 18.0837C1.87587 18.3002 2.54921 20.5487 2.68148 20.9455C4.50913 26.5607 7.08228 32.1278 9.01815 37.731C10.8699 41.8312 15.3909 43.4906 16.9179 47.8553C17.2426 48.7932 17.8318 51.1619 17.6394 52.0637C17.4711 52.7972 16.449 52.9655 16.0041 52.3282C15.7276 51.9314 15.5592 49.9114 15.3548 49.19C14.2606 45.2581 10.4009 43.4304 8.20052 40.208C5.65142 34.3403 3.07827 28.0637 1.05823 21.9675C0.721559 21.0056 0.048212 19.1659 0.000115831 18.1799C-0.0479804 17.194 1.01014 15.9074 1.99611 15.703C5.71154 14.9094 7.29871 19.9475 8.53719 22.4485C9.49911 24.3843 10.461 26.3082 11.4951 28.208L11.5071 28.22Z" fill="#1E381F"/>
<path d="M41.8556 29.2908V34.6896C41.8556 35.1826 40.7013 35.6035 40.3166 35.1586L35.3747 29.3149L27.3426 29.2788C25.9238 29.1345 24.3967 27.8119 24.1923 26.381C24.1202 25.8399 24.0841 23.6876 24.1923 23.1946C24.3246 22.5213 25.2745 22.3169 25.7675 22.7738C26.7895 23.7237 24.8897 27.1506 27.7995 27.4151C30.4809 27.6556 33.4629 27.1866 36.1683 27.4632C37.6713 28.6295 38.5851 30.385 39.9558 31.6836V28.1846C39.9558 27.9682 40.3887 27.4993 40.6412 27.4512C42.7214 26.9822 45.9679 28.6175 46.2444 25.3469C46.5931 21.2948 45.9799 16.7618 46.2444 12.6616C46.1843 11.88 45.8597 11.0263 45.042 10.7858C43.551 10.3409 40.533 10.9662 38.8376 10.7017C37.7554 10.5333 37.7314 8.97019 38.7174 8.81388C39.8116 8.64554 43.9599 8.68162 45.0781 8.83793C47.0981 9.12651 48.012 10.9181 48.1322 12.7698C48.3727 16.3049 48.3607 21.6796 48.1322 25.2267C48.036 26.6936 47.5791 28.1365 46.1963 28.858C45.9919 28.9662 45.1502 29.3149 44.9939 29.3149H41.8556V29.2908Z" fill="#1E381F"/>
</g>
<defs>
<clipPath id="clip0_984_821">
<rect width="60" height="60" fill="white"/>
</clipPath>
</defs>
</svg>
